<svg width="46" height="30" viewBox="0 0 46 30" fill="none" xmlns="http://www.w3.org/2000/svg">
<rect x="0.5" y="0.5" width="45" height="29" rx="3.5" fill="#F6F5F4"/>
<rect x="0.5" y="0.5" width="45" height="29" rx="3.5" stroke="#E4E2DD"/>
<path fill-rule="evenodd" clip-rule="evenodd" d="M45.0167 6.27855H41.3748L39.4712 11.6747L37.4846 6.27855H33.76V14.6808L29.9525 6.27855H26.8902L23.0827 14.8632H25.7313L26.4762 13.1464H30.4492L31.1942 14.8632H36.1604V8.89476L38.3951 14.8632H40.4643L42.6991 8.89476V14.8632H45.0167V16.1713H41.9541L39.4712 18.8694L36.9053 16.1713H26.3935V24.756H36.8226L39.3883 21.9762L41.9541 24.756H45.0167V25.8187H41.3748L39.3883 23.6931L37.4017 25.8187H25.0693V16.0078H21.0962L26.0624 4.97021H30.863L32.6011 8.73122V4.97021H38.5607L39.5538 7.83185L40.5472 4.97021H45.0167V6.27855ZM45.0167 18.0517L42.782 20.4227L45.0167 22.7937V24.756L40.961 20.4227L45.0167 16.1713V18.0517ZM33.76 24.756V22.7121H28.7938V21.404H33.6771V19.4417H28.7938V18.1336H33.76V16.1713L37.8984 20.4227L33.76 24.756ZM27.2211 11.2658L28.3801 8.48602L29.5388 11.2658H27.2211Z" fill="#006FCF"/>
</svg>
