<svg width="46" height="30" viewBox="0 0 46 30" fill="none" xmlns="http://www.w3.org/2000/svg">
<rect x="0.5" y="0.5" width="45" height="29" rx="3.5" fill="#F6F5F4"/>
<rect x="0.5" y="0.5" width="45" height="29" rx="3.5" stroke="#E4E2DD"/>
<path d="M15.2313 11.3322C15.5249 10.9695 15.7241 10.4825 15.6716 9.98486C15.2418 10.006 14.7175 10.2649 14.4139 10.6279C14.1413 10.9387 13.9 11.4461 13.9629 11.9228C14.4453 11.9642 14.9272 11.6847 15.2313 11.3322Z" fill="#000008"/>
<path d="M15.6661 12.0159C14.9656 11.9747 14.3699 12.4087 14.0354 12.4087C13.7007 12.4087 13.1884 12.0367 12.6343 12.0467C11.9131 12.0572 11.244 12.46 10.878 13.1006C10.1253 14.3821 10.6794 16.2831 11.4114 17.3268C11.7668 17.8432 12.1952 18.4117 12.7597 18.3913C13.2931 18.3706 13.5021 18.0502 14.1504 18.0502C14.7982 18.0502 14.9865 18.3913 15.5511 18.381C16.1366 18.3706 16.5026 17.8643 16.8581 17.3475C17.2659 16.7588 17.4328 16.1905 17.4433 16.1593C17.4328 16.1489 16.3143 15.7251 16.304 14.4542C16.2934 13.3901 17.1821 12.8839 17.2239 12.8525C16.7221 12.1194 15.9379 12.0367 15.6661 12.0159Z" fill="#000008"/>
<path d="M21.7657 10.5758C23.2883 10.5758 24.3486 11.6125 24.3486 13.1219C24.3486 14.6367 23.2665 15.6788 21.7276 15.6788H20.0418V18.327H18.8238V10.5758L21.7657 10.5758ZM20.0418 14.6689H21.4393C22.4998 14.6689 23.1033 14.105 23.1033 13.1273C23.1033 12.1498 22.4998 11.5911 21.4448 11.5911H20.0418V14.6689Z" fill="#000008"/>
<path d="M24.6668 16.7209C24.6668 15.7325 25.4335 15.1255 26.7931 15.0503L28.3591 14.959V14.524C28.3591 13.8955 27.9295 13.5195 27.2118 13.5195C26.5319 13.5195 26.1078 13.8417 26.0046 14.3467H24.8952C24.9605 13.326 25.8413 12.574 27.2553 12.574C28.6419 12.574 29.5282 13.2992 29.5282 14.4326V18.3269H28.4026V17.3977H28.3755C28.0438 18.0262 27.3205 18.4236 26.5701 18.4236C25.4499 18.4236 24.6668 17.7361 24.6668 16.7209ZM28.3591 16.2106V15.7648L26.9507 15.8507C26.2492 15.8991 25.8523 16.2052 25.8523 16.6887C25.8523 17.1828 26.2655 17.5051 26.8963 17.5051C27.7174 17.5051 28.3591 16.9465 28.3591 16.2106Z" fill="#000008"/>
<path d="M30.591 20.4058V19.4657C30.6778 19.4872 30.8736 19.4872 30.9715 19.4872C31.5153 19.4872 31.809 19.2616 31.9883 18.6815C31.9883 18.6707 32.0918 18.3377 32.0918 18.3323L30.0254 12.6761H31.2977L32.7444 17.2742H32.766L34.2127 12.6761H35.4525L33.3098 18.6223C32.8206 19.9922 32.255 20.4326 31.0695 20.4326C30.9715 20.4326 30.6779 20.4218 30.591 20.4058Z" fill="#000008"/>
</svg>
