<svg width="46" height="30" viewBox="0 0 46 30" fill="none" xmlns="http://www.w3.org/2000/svg">
<rect x="0.5" y="0.5" width="45" height="29" rx="3.5" fill="#F6F5F4"/>
<rect x="0.5" y="0.5" width="45" height="29" rx="3.5" stroke="#E4E2DD"/>
<path d="M16.3851 15.0718C16.3851 16.6194 17.6155 17.8191 19.1982 17.8191C19.6459 17.8191 20.0287 17.732 20.5014 17.5125V16.3039C20.0859 16.7143 19.7178 16.8801 19.2464 16.8801C18.1993 16.8801 17.4562 16.1304 17.4562 15.0642C17.4562 14.0537 18.2234 13.2563 19.1982 13.2563C19.6942 13.2563 20.0696 13.4307 20.5014 13.8483V12.6401C20.0455 12.4117 19.67 12.3169 19.2227 12.3169C17.6478 12.3169 16.3851 13.5413 16.3851 15.0718Z" fill="#251F1F"/>
<path d="M13.717 13.7935C13.717 14.0775 13.9004 14.2281 14.5243 14.456C15.7069 14.8834 16.0574 15.2619 16.0574 16.0985C16.0574 17.1174 15.2992 17.8268 14.219 17.8268C13.4281 17.8268 12.8529 17.5193 12.3737 16.8248L13.0454 16.1861C13.2847 16.6432 13.6843 16.8882 14.1798 16.8882C14.6439 16.8882 14.9871 16.5722 14.9871 16.1457C14.9871 15.9245 14.8829 15.7344 14.6754 15.6009C14.5708 15.5375 14.3637 15.4427 13.9568 15.3011C12.9804 14.954 12.6454 14.5828 12.6454 13.8573C12.6454 12.9956 13.3648 12.3488 14.3077 12.3488C14.8919 12.3488 15.4267 12.5461 15.874 12.9327L15.3298 13.6361C15.059 13.3363 14.8032 13.2096 14.4915 13.2096C14.0433 13.2096 13.717 13.4617 13.717 13.7935Z" fill="#251F1F"/>
<path fill-rule="evenodd" clip-rule="evenodd" d="M7.6034 12.436H6.07715V17.7005H7.59522C8.40204 17.7005 8.98542 17.5125 9.4969 17.0928C10.1048 16.5956 10.4643 15.8463 10.4643 15.0719C10.4643 13.5183 9.28895 12.436 7.6034 12.436ZM8.81751 16.3911C8.49073 16.682 8.06665 16.8091 7.39502 16.8091H7.11603V13.3282H7.39502C8.06665 13.3282 8.47394 13.4464 8.81751 13.7539C9.17744 14.0699 9.39314 14.5598 9.39314 15.0642C9.39314 15.5694 9.17744 16.0751 8.81751 16.3911Z" fill="#251F1F"/>
<path d="M11.9824 12.436H10.9426V17.7005H11.9824V12.436Z" fill="#251F1F"/>
<path d="M27.3228 12.436L28.7444 15.9717L30.1842 12.436H31.3109L29.0084 17.8357H28.4491L26.1875 12.436H27.3228Z" fill="#251F1F"/>
<path d="M31.781 17.7005H34.7293V16.8091H32.8199V15.3883H34.6587V14.4965H32.8199V13.3282H34.7293V12.436H31.781V17.7005Z" fill="#251F1F"/>
<path fill-rule="evenodd" clip-rule="evenodd" d="M36.9591 12.436C38.1581 12.436 38.8461 13.0046 38.8461 13.9899C38.8461 14.7963 38.4143 15.3253 37.6311 15.4827L39.3089 17.7005H38.0307L36.5918 15.5856H36.4558V17.7005H35.4177V12.436H36.9591ZM36.4558 14.8596H36.7601C37.424 14.8596 37.7758 14.5747 37.7758 14.0457C37.7758 13.5332 37.424 13.2648 36.7761 13.2648H36.4558V14.8596Z" fill="#251F1F"/>
<path fill-rule="evenodd" clip-rule="evenodd" d="M39.6745 12.712C39.6745 12.6193 39.6094 12.5687 39.4962 12.5687H39.3455V13.0331H39.4575V12.8532L39.5888 13.0331H39.7261L39.5716 12.8417C39.6374 12.8238 39.6745 12.7762 39.6745 12.712ZM39.4764 12.7754H39.4575V12.6537H39.4777C39.5332 12.6537 39.5621 12.6737 39.5621 12.7137C39.5621 12.7545 39.5328 12.7754 39.4764 12.7754Z" fill="#251F1F"/>
<path fill-rule="evenodd" clip-rule="evenodd" d="M39.1092 12.8C39.1092 12.575 39.2908 12.3951 39.5186 12.3951C39.7407 12.3951 39.9233 12.5784 39.9233 12.8C39.9233 13.0228 39.7407 13.2049 39.5186 13.2049C39.2926 13.2049 39.1092 13.0246 39.1092 12.8ZM39.1905 12.8004C39.1905 12.985 39.3373 13.1326 39.5169 13.1326C39.696 13.1326 39.8415 12.9833 39.8415 12.8004C39.8415 12.6193 39.696 12.4679 39.5169 12.4679C39.336 12.4679 39.1905 12.6159 39.1905 12.8004Z" fill="#251F1F"/>
<g filter="url(#filter0_i_188_1861)">
<path d="M23.6528 17.8611C22.0949 17.8611 20.8315 16.6131 20.8315 15.0743V15.0705C20.8315 14.3048 21.1454 13.6082 21.6531 13.1067C21.6531 13.1028 21.657 13.1028 21.657 13.0991C21.6608 13.0991 21.6608 13.0952 21.6648 13.0952C22.1724 12.5937 22.8778 12.2837 23.6528 12.2837H23.6567C25.2146 12.2837 26.478 13.5316 26.478 15.0705V15.0743C26.478 15.8399 26.164 16.5328 25.6563 17.0381C25.6563 17.0419 25.6525 17.0419 25.6525 17.0458C25.6486 17.0458 25.6486 17.0496 25.6448 17.0496C25.1332 17.551 24.4317 17.8611 23.6567 17.8611H23.6528Z" fill="url(#paint0_linear_188_1861)"/>
</g>
<defs>
<filter id="filter0_i_188_1861" x="20.8315" y="12.2837" width="6.62341" height="7.04253" filterUnits="userSpaceOnUse" color-interpolation-filters="sRGB">
<feFlood flood-opacity="0" result="BackgroundImageFix"/>
<feBlend mode="normal" in="SourceGraphic" in2="BackgroundImageFix" result="shape"/>
<feColorMatrix in="SourceAlpha" type="matrix" values="0 0 0 0 0 0 0 0 0 0 0 0 0 0 0 0 0 0 127 0" result="hardAlpha"/>
<feOffset dx="0.976924" dy="1.46539"/>
<feGaussianBlur stdDeviation="0.976924"/>
<feComposite in2="hardAlpha" operator="arithmetic" k2="-1" k3="1"/>
<feColorMatrix type="matrix" values="0 0 0 0 0 0 0 0 0 0 0 0 0 0 0 0 0 0 0.35 0"/>
<feBlend mode="normal" in2="shape" result="effect1_innerShadow_188_1861"/>
</filter>
<linearGradient id="paint0_linear_188_1861" x1="22.175" y1="12.2837" x2="26.7669" y2="16.2173" gradientUnits="userSpaceOnUse">
<stop stop-color="#EF3823"/>
<stop offset="0.489583" stop-color="#F04D22"/>
<stop offset="1" stop-color="#F7911D"/>
</linearGradient>
</defs>
</svg>
