<svg width="46" height="30" viewBox="0 0 46 30" fill="none" xmlns="http://www.w3.org/2000/svg">
<rect x="0.5" y="0.5" width="45" height="29" rx="3.5" fill="#F6F5F4"/>
<rect x="0.5" y="0.5" width="45" height="29" rx="3.5" stroke="#E4E2DD"/>
<path d="M22.0434 18.3555H21.0538V10.7488H23.6774C24.3423 10.7488 24.9093 10.9678 25.3732 11.4056C25.8474 11.8435 26.0845 12.3781 26.0845 13.0094C26.0845 13.6561 25.8474 14.1907 25.3732 14.6234C24.9144 15.0562 24.3474 15.2701 23.6774 15.2701H22.0434V18.3555ZM22.0434 11.6856V14.3383H23.698C24.0897 14.3383 24.4196 14.2059 24.6773 13.9463C24.9402 13.6866 25.0742 13.3709 25.0742 13.0145C25.0742 12.6632 24.9402 12.3526 24.6773 12.093C24.4196 11.8231 24.0949 11.6907 23.698 11.6907H22.0434V11.6856Z" fill="#3C4043"/>
<path d="M28.6719 12.9789C29.4038 12.9789 29.9811 13.1724 30.4038 13.5593C30.8264 13.9463 31.0378 14.4758 31.0378 15.1479V18.3555H30.0945V17.6325H30.0533C29.6461 18.2282 29.0997 18.5235 28.4193 18.5235C27.8369 18.5235 27.3524 18.3555 26.9606 18.0144C26.5689 17.6732 26.373 17.2506 26.373 16.7415C26.373 16.2018 26.5792 15.7741 26.9916 15.4584C27.4039 15.1377 27.9554 14.9798 28.641 14.9798C29.2286 14.9798 29.7131 15.0868 30.0893 15.3006V15.0766C30.0893 14.7354 29.9553 14.4503 29.6821 14.211C29.409 13.9717 29.0894 13.8546 28.7234 13.8546C28.1719 13.8546 27.7338 14.0837 27.4142 14.5471L26.5431 14.0074C27.0225 13.32 27.7338 12.9789 28.6719 12.9789ZM27.3936 16.7568C27.3936 17.0113 27.5018 17.2252 27.7235 17.3932C27.94 17.5612 28.1977 17.6478 28.4915 17.6478C28.909 17.6478 29.2801 17.495 29.6048 17.1895C29.9296 16.884 30.0945 16.5276 30.0945 16.1152C29.7852 15.8759 29.3574 15.7537 28.8059 15.7537C28.4039 15.7537 28.0688 15.8505 27.8008 16.0389C27.5276 16.2374 27.3936 16.4767 27.3936 16.7568Z" fill="#3C4043"/>
<path d="M36.419 13.147L33.1202 20.6416H32.0996L33.3264 18.0195L31.1512 13.147H32.2285L33.7954 16.8841H33.816L35.3417 13.147H36.419Z" fill="#3C4043"/>
<path d="M18.1069 14.654C18.1069 14.3353 18.0781 14.0303 18.0245 13.737H13.8762V15.4172L16.2653 15.4177C16.1684 15.9768 15.8565 16.4533 15.3787 16.771V17.8611H16.8008C17.6312 17.102 18.1069 15.9798 18.1069 14.654Z" fill="#4285F4"/>
<path d="M15.3792 16.7711C14.9834 17.0348 14.4736 17.1891 13.8772 17.1891C12.7252 17.1891 11.748 16.4223 11.398 15.3887H9.93103V16.5129C10.6578 17.9375 12.1515 18.9151 13.8772 18.9151C15.07 18.9151 16.072 18.5276 16.8013 17.8607L15.3792 16.7711Z" fill="#34A853"/>
<path d="M11.2598 14.5547C11.2598 14.2645 11.3088 13.9839 11.3979 13.7202V12.596H9.93099C9.63049 13.1851 9.46143 13.85 9.46143 14.5547C9.46143 15.2594 9.631 15.9243 9.93099 16.5134L11.3979 15.3892C11.3088 15.1254 11.2598 14.8449 11.2598 14.5547Z" fill="#FABB05"/>
<path d="M13.8772 11.9199C14.5282 11.9199 15.1112 12.1413 15.5715 12.5741L16.8317 11.3303C16.0663 10.6261 15.0684 10.1938 13.8772 10.1938C12.1521 10.1938 10.6578 11.1714 9.93099 12.596L11.3979 13.7202C11.7479 12.6866 12.7252 11.9199 13.8772 11.9199Z" fill="#E94235"/>
</svg>
