<svg width="46" height="30" viewBox="0 0 46 30" fill="none" xmlns="http://www.w3.org/2000/svg">
<rect x="0.5" y="0.5" width="45" height="29" rx="3.5" fill="#F6F5F4"/>
<rect x="0.5" y="0.5" width="45" height="29" rx="3.5" stroke="#E4E2DD"/>
<path d="M26.1607 9.25014H19.6824V20.7498H26.1607V9.25014Z" fill="#FF5F00"/>
<path d="M20.0938 15C20.0927 13.8925 20.3468 12.7992 20.8367 11.8031C21.3267 10.8069 22.0396 9.9339 22.9216 9.25014C21.8294 8.40211 20.5177 7.87474 19.1363 7.72829C17.755 7.58185 16.3599 7.82223 15.1104 8.42199C13.8608 9.02174 12.8073 9.95666 12.0703 11.1199C11.3332 12.2831 10.9424 13.6277 10.9424 15C10.9424 16.3722 11.3332 17.7168 12.0703 18.88C12.8073 20.0433 13.8608 20.9782 15.1104 21.5779C16.3599 22.1777 17.755 22.4181 19.1363 22.2716C20.5177 22.1252 21.8294 21.5978 22.9216 20.7498C22.0396 20.066 21.3267 19.193 20.8367 18.1968C20.3468 17.2007 20.0927 16.1075 20.0938 15Z" fill="#EB001B"/>
<path d="M34.9004 15C34.9005 16.3722 34.5097 17.7168 33.7727 18.88C33.0357 20.0432 31.9822 20.9781 30.7327 21.5779C29.4832 22.1777 28.0881 22.4181 26.7068 22.2716C25.3255 22.1252 24.0138 21.5978 22.9216 20.7498C23.8028 20.0653 24.5152 19.1922 25.005 18.1962C25.4949 17.2001 25.7494 16.1073 25.7494 15C25.7494 13.8926 25.4949 12.7998 25.005 11.8038C24.5152 10.8077 23.8028 9.93459 22.9216 9.25014C24.0138 8.40211 25.3255 7.87473 26.7068 7.72829C28.0881 7.58185 29.4832 7.82224 30.7327 8.422C31.9822 9.02176 33.0357 9.95668 33.7727 11.1199C34.5097 12.2831 34.9005 13.6277 34.9004 15Z" fill="#F79E1B"/>
<path d="M34.1941 19.5318V19.2964H34.2902V19.2484H34.0454V19.2964H34.1416V19.5318H34.1941ZM34.6693 19.5318V19.2479H34.5942L34.5079 19.4432L34.4216 19.2479H34.3465V19.5318H34.3995V19.3177L34.4805 19.5023H34.5354L34.6163 19.3172V19.5318H34.6693Z" fill="#F79E1B"/>
</svg>
