<svg width="46" height="30" viewBox="0 0 46 30" fill="none" xmlns="http://www.w3.org/2000/svg">
<rect x="0.5" y="0.5" width="45" height="29" rx="3.5" fill="#F6F5F4"/>
<rect x="0.5" y="0.5" width="45" height="29" rx="3.5" stroke="#E4E2DD"/>
<path fill-rule="evenodd" clip-rule="evenodd" d="M10.6252 10.9262H8.08839C7.9148 10.9262 7.76716 11.0508 7.74009 11.22L6.71409 17.6449C6.69369 17.7717 6.7931 17.886 6.9233 17.886H8.13438C8.30797 17.886 8.45561 17.7613 8.48268 17.5918L8.75941 15.8589C8.7861 15.6892 8.9341 15.5648 9.10734 15.5648H9.91039C11.5814 15.5648 12.5458 14.7661 12.7978 13.1834C12.9113 12.491 12.8026 11.947 12.4742 11.5659C12.1138 11.1476 11.4742 10.9262 10.6252 10.9262ZM10.9178 13.2728C10.7791 14.1719 10.0836 14.1719 9.41113 14.1719H9.02832L9.29688 12.4927C9.31282 12.3914 9.40184 12.3166 9.50571 12.3166H9.68116C10.1393 12.3166 10.5714 12.3166 10.7948 12.5745C10.9278 12.7284 10.9686 12.9569 10.9178 13.2728ZM18.2082 13.244H16.9934C16.8899 13.244 16.8004 13.3187 16.7845 13.4203L16.7308 13.7558L16.6458 13.6343C16.3828 13.2572 15.7964 13.1312 15.2111 13.1312C13.8686 13.1312 12.7221 14.1354 12.4988 15.5441C12.3827 16.2467 12.5477 16.9186 12.9513 17.3872C13.3215 17.818 13.8512 17.9975 14.4814 17.9975C15.563 17.9975 16.1629 17.3105 16.1629 17.3105L16.1087 17.644C16.0883 17.7715 16.1876 17.8858 16.3171 17.8858H17.4114C17.5854 17.8858 17.7322 17.7612 17.7597 17.5916L18.4162 13.4851C18.437 13.3588 18.338 13.244 18.2082 13.244ZM16.5148 15.5792C16.3976 16.2646 15.8467 16.7248 15.1443 16.7248C14.7916 16.7248 14.5095 16.6131 14.3286 16.4013C14.1491 16.1911 14.0807 15.8917 14.1379 15.5584C14.2474 14.8787 14.8075 14.4036 15.4993 14.4036C15.8442 14.4036 16.1246 14.5167 16.3093 14.7303C16.4944 14.9461 16.5679 15.2472 16.5148 15.5792ZM23.4572 13.2438H24.678C24.849 13.2438 24.9487 13.4332 24.8516 13.5717L20.7914 19.3601C20.7257 19.4538 20.6174 19.5096 20.5017 19.5096H19.2824C19.1108 19.5096 19.0105 19.3187 19.1099 19.1799L20.3741 17.4173L19.0296 13.52C18.983 13.3845 19.0843 13.2438 19.2302 13.2438H20.4298C20.5856 13.2438 20.7231 13.3448 20.7681 13.4922L21.4817 15.8461L23.1654 13.3966C23.2313 13.3009 23.3408 13.2438 23.4572 13.2438Z" fill="#253B80"/>
<path fill-rule="evenodd" clip-rule="evenodd" d="M36.6934 17.6443L37.7344 11.102C37.7504 11.0004 37.8395 10.9256 37.943 10.9253H39.1151C39.2445 10.9253 39.3439 11.0399 39.3235 11.1667L38.2968 17.5912C38.27 17.7608 38.1224 17.8854 37.9485 17.8854H36.9017C36.7723 17.8854 36.6729 17.7711 36.6934 17.6443ZM28.7202 10.9256H26.1829C26.0097 10.9256 25.8621 11.0502 25.835 11.2194L24.809 17.6443C24.7886 17.7711 24.888 17.8854 25.0176 17.8854H26.3194C26.4404 17.8854 26.5439 17.7982 26.5628 17.6796L26.8539 15.8584C26.8807 15.6887 27.0287 15.5642 27.2019 15.5642H28.0045C29.6759 15.5642 30.6401 14.7655 30.8923 13.1829C31.0061 12.4905 30.8967 11.9464 30.5685 11.5653C30.2082 11.147 29.5692 10.9256 28.7202 10.9256ZM29.0128 13.2722C28.8745 14.1713 28.1789 14.1713 27.506 14.1713H27.1236L27.3926 12.4922C27.4085 12.3908 27.4968 12.316 27.601 12.316H27.7764C28.2342 12.316 28.6668 12.316 28.8899 12.5739C29.0231 12.7278 29.0636 12.9564 29.0128 13.2722ZM36.3025 13.2434H35.0886C34.9842 13.2434 34.8956 13.3182 34.88 13.4197L34.8263 13.7552L34.741 13.6337C34.478 13.2566 33.8919 13.1307 33.3066 13.1307C31.9641 13.1307 30.8179 14.1348 30.5946 15.5435C30.4789 16.2461 30.6432 16.918 31.0468 17.3866C31.4177 17.8174 31.9468 17.9969 32.5769 17.9969C33.6585 17.9969 34.2583 17.31 34.2583 17.31L34.2042 17.6434C34.1838 17.7709 34.2831 17.8852 34.4134 17.8852H35.5072C35.6804 17.8852 35.828 17.7606 35.8552 17.5911L36.5121 13.4845C36.5322 13.3582 36.4328 13.2434 36.3025 13.2434ZM34.6093 15.5786C34.4927 16.2641 33.9412 16.7242 33.2386 16.7242C32.8866 16.7242 32.604 16.6125 32.4229 16.4007C32.2434 16.1905 32.1759 15.8911 32.2324 15.5578C32.3424 14.8781 32.9018 14.403 33.5936 14.403C33.9386 14.403 34.2189 14.5161 34.4038 14.7297C34.5896 14.9456 34.663 15.2467 34.6093 15.5786Z" fill="#179BD7"/>
</svg>
