<svg width="46" height="30" viewBox="0 0 46 30" fill="none" xmlns="http://www.w3.org/2000/svg">
<rect x="0.5" y="0.5" width="45" height="29" rx="3.5" fill="#F6F5F4"/>
<rect x="0.5" y="0.5" width="45" height="29" rx="3.5" stroke="#E4E2DD"/>
<path d="M25.3819 13.3553C25.3819 14.9122 24.2775 16.0232 22.7337 16.0232H21.2797C21.2637 16.0232 21.2478 16.0263 21.233 16.0324C21.2182 16.0384 21.2047 16.0474 21.1934 16.0586C21.1705 16.0812 21.1576 16.1119 21.1576 16.1439V18.19C21.1575 18.222 21.1446 18.2526 21.1217 18.2752C21.0988 18.2978 21.0678 18.3106 21.0354 18.3106H20.0175C19.9851 18.3106 19.9541 18.2979 19.9312 18.2752C19.9083 18.2526 19.8955 18.222 19.8955 18.19V10.8082C19.8955 10.7762 19.9083 10.7456 19.9312 10.7229C19.9541 10.7003 19.9851 10.6876 20.0175 10.6875H22.7404C24.2775 10.6859 25.3819 11.7969 25.3819 13.3553ZM24.1129 13.3553C24.1129 12.4605 23.4953 11.8069 22.6573 11.8069H21.2797C21.2637 11.8069 21.2478 11.81 21.2329 11.816C21.2181 11.8221 21.2046 11.831 21.1933 11.8422C21.1819 11.8534 21.1729 11.8667 21.1668 11.8814C21.1607 11.896 21.1575 11.9117 21.1576 11.9276V14.7764C21.1575 14.7922 21.1607 14.8079 21.1668 14.8226C21.1729 14.8373 21.1819 14.8506 21.1933 14.8618C21.2046 14.873 21.2181 14.8819 21.2329 14.8879C21.2478 14.894 21.2637 14.8971 21.2797 14.897H22.6573C23.4953 14.9022 24.1129 14.2486 24.1129 13.3553ZM25.6838 16.8947C25.6734 16.656 25.7235 16.4184 25.8295 16.2036C25.9356 15.9888 26.0942 15.8035 26.2911 15.6647C26.6883 15.3698 27.3091 15.2172 28.2201 15.1853L29.1906 15.1519V14.8686C29.1906 14.3021 28.8054 14.0626 28.1878 14.0626C27.5704 14.0626 27.1785 14.2788 27.0886 14.6324C27.0812 14.6572 27.0657 14.6788 27.0445 14.694C27.0233 14.7091 26.9976 14.7169 26.9715 14.7162H26.013C25.9953 14.7166 25.9778 14.7132 25.9616 14.7061C25.9454 14.6991 25.931 14.6887 25.9193 14.6756C25.9077 14.6624 25.8991 14.647 25.8942 14.6302C25.8892 14.6134 25.8881 14.5958 25.8908 14.5786C26.0333 13.7408 26.7391 13.1041 28.2321 13.1041C29.82 13.1041 30.3933 13.8345 30.3933 15.2288V18.19C30.3929 18.2222 30.3797 18.2529 30.3565 18.2755C30.3333 18.2981 30.302 18.3107 30.2695 18.3106H29.3025C29.2865 18.3107 29.2706 18.3076 29.2558 18.3016C29.2409 18.2955 29.2275 18.2866 29.2162 18.2754C29.2048 18.2642 29.1958 18.2509 29.1896 18.2362C29.1835 18.2216 29.1803 18.2058 29.1803 18.19V17.9689C29.1807 17.9507 29.1754 17.9328 29.1653 17.9175C29.1552 17.9023 29.1406 17.8905 29.1235 17.8836C29.1064 17.8767 29.0876 17.8751 29.0696 17.879C29.0516 17.8828 29.0352 17.892 29.0225 17.9052C28.7325 18.2167 28.2642 18.4415 27.5144 18.4415C26.4116 18.4415 25.6838 17.875 25.6838 16.8947ZM29.1906 16.2528V16.0232L27.9334 16.0885C27.2717 16.1221 26.8867 16.3936 26.8867 16.851C26.8867 17.2649 27.2396 17.4946 27.8571 17.4946C28.6952 17.4946 29.1906 17.047 29.1906 16.2528ZM31.3638 20.5479V19.6898C31.3637 19.6718 31.3678 19.654 31.3756 19.6377C31.3834 19.6214 31.3948 19.607 31.4089 19.5956C31.423 19.5842 31.4396 19.5761 31.4573 19.5718C31.475 19.5675 31.4935 19.5672 31.5114 19.5708C31.6596 19.5984 31.8101 19.6124 31.961 19.6127C32.2204 19.6253 32.4765 19.5516 32.6884 19.4033C32.9004 19.2551 33.0558 19.0409 33.1299 18.795L33.1926 18.5972C33.2018 18.5706 33.2018 18.5417 33.1926 18.5151L31.1788 13.4073C31.1713 13.3888 31.1686 13.3687 31.1709 13.3488C31.1741 13.3188 31.1885 13.291 31.2113 13.2709C31.2341 13.2507 31.2637 13.2397 31.2943 13.2399H32.2696C32.2947 13.24 32.3191 13.2475 32.3397 13.2616C32.3603 13.2756 32.3761 13.2955 32.3851 13.3186L33.7525 16.9215C33.7608 16.9456 33.7766 16.9665 33.7976 16.9812C33.8186 16.996 33.8437 17.0039 33.8695 17.0038C33.8952 17.0037 33.9203 16.9958 33.9413 16.9811C33.9623 16.9663 33.9781 16.9455 33.9866 16.9215L35.1742 13.3285C35.1824 13.304 35.1984 13.2826 35.2197 13.2676C35.241 13.2525 35.2666 13.2446 35.2928 13.2448H36.3023C36.3226 13.2448 36.3425 13.2497 36.3604 13.2591C36.3783 13.2684 36.3937 13.2818 36.4052 13.2983C36.4167 13.3148 36.424 13.3337 36.4265 13.3536C36.429 13.3734 36.4265 13.3936 36.4194 13.4123L34.2648 19.0848C33.7694 20.4038 32.9195 20.7405 31.983 20.7405C31.8056 20.7452 31.6284 20.7243 31.457 20.6785C31.4283 20.6712 31.4033 20.654 31.3863 20.63C31.3691 20.6061 31.3612 20.577 31.3638 20.5479ZM13.3554 10.2618C12.0728 10.2529 10.8355 10.7296 9.89792 11.5941C9.85768 11.6305 9.8326 11.6803 9.82759 11.7339C9.82258 11.7875 9.83799 11.8411 9.87082 11.884L10.4511 12.6666C10.4699 12.6927 10.4943 12.7144 10.5225 12.7301C10.5507 12.7459 10.5821 12.7554 10.6144 12.758C10.6467 12.7605 10.6792 12.7561 10.7096 12.7449C10.74 12.7338 10.7675 12.7162 10.7903 12.6934C11.1274 12.3604 11.5283 12.0972 11.9696 11.9191C12.4109 11.7409 12.8838 11.6515 13.3605 11.656C15.3505 11.656 16.3904 13.1359 16.3904 14.5972C16.3904 16.1858 15.2979 17.3035 13.7287 17.3253C12.5157 17.3253 11.6013 16.531 11.6013 15.4818C11.6025 15.2168 11.6632 14.9553 11.7791 14.7163C11.8949 14.4772 12.0631 14.2666 12.2713 14.0995C12.3155 14.0632 12.3434 14.0113 12.3491 13.9548C12.3549 13.8984 12.3379 13.842 12.302 13.7978L11.6911 13.037C11.6727 13.0139 11.6497 12.9948 11.6236 12.9807C11.5976 12.9666 11.5689 12.9578 11.5393 12.9548C11.5097 12.9519 11.4798 12.9548 11.4514 12.9634C11.423 12.9721 11.3967 12.9863 11.3739 13.0052C10.9993 13.3033 10.6969 13.6805 10.4891 14.1091C10.2812 14.5377 10.1731 15.0068 10.1727 15.482C10.1727 17.2884 11.7266 18.7046 13.7169 18.7162H13.7438C16.1071 18.686 17.8155 16.9566 17.8155 14.5938C17.8155 12.4957 16.2513 10.2618 13.3554 10.2618Z" fill="#5A31F4"/>
</svg>
