<svg width="46" height="30" viewBox="0 0 46 30" fill="none" xmlns="http://www.w3.org/2000/svg">
<rect x="0.5" y="0.5" width="45" height="29" rx="3.5" fill="#F6F5F4"/>
<rect x="0.5" y="0.5" width="45" height="29" rx="3.5" stroke="#E4E2DD"/>
<path d="M22.731 10.437L20.6787 19.9134H18.197L20.2496 10.437H22.731ZM33.1723 16.556L34.4788 12.9973L35.2307 16.556H33.1723ZM35.9412 19.9134H38.2367L36.2336 10.437H34.1148C33.6387 10.437 33.237 10.7106 33.0581 11.1323L29.3349 19.9134H31.941L32.4584 18.4983H35.6424L35.9412 19.9134ZM29.4642 16.8193C29.4748 14.3182 25.9626 14.1805 25.9869 13.0632C25.9942 12.7228 26.3225 12.3617 27.0393 12.269C27.3955 12.2231 28.3748 12.188 29.4867 12.6934L29.9221 10.6839C29.3249 10.4697 28.5563 10.2637 27.6005 10.2637C25.1477 10.2637 23.4212 11.5519 23.4066 13.3965C23.3911 14.7606 24.6391 15.5218 25.5794 15.9753C26.5462 16.4399 26.8711 16.7374 26.8669 17.1528C26.8605 17.789 26.0956 18.0691 25.3821 18.0802C24.1341 18.0997 23.4099 17.7476 22.8327 17.4819L22.383 19.5583C22.9627 19.8213 24.033 20.0499 25.1434 20.0616C27.7502 20.0616 29.4557 18.7893 29.4642 16.8193ZM19.1848 10.437L15.164 19.9134H12.5402L10.5617 12.3506C10.4414 11.8848 10.337 11.7144 9.97169 11.518C9.37565 11.1986 8.39033 10.8983 7.52344 10.7124L7.58265 10.437H11.8054C12.3434 10.437 12.8277 10.791 12.9498 11.4031L13.9949 16.8871L16.5774 10.437H19.1848Z" fill="#1434CB"/>
</svg>
