<svg width="16" height="16" viewBox="0 0 16 16" fill="none" xmlns="http://www.w3.org/2000/svg">
<g clip-path="url(#clip0_73_1399)">
<path d="M12.1132 3.27329L11.3998 2.55996L7.69984 6.25996V6.97996H8.41984L12.1132 3.27329ZM10.6665 1.82663L11.5265 0.966627C11.6189 0.873101 11.7289 0.798845 11.8502 0.748164C11.9715 0.697483 12.1017 0.671387 12.2332 0.671387C12.3646 0.671387 12.4948 0.697483 12.6161 0.748164C12.7374 0.798845 12.8474 0.873101 12.9398 0.966627L13.7065 1.73329C14.0998 2.12663 14.0998 2.75996 13.7065 3.14663L13.2532 3.59996L13.2398 3.61329L12.8532 3.99996L8.85317 7.99996H6.6665V5.82663L10.6665 1.82663ZM9.1465 1.45996L8.77984 1.82663L7.93317 2.67329C5.73317 2.70663 3.99984 4.40663 3.99984 6.80663C3.99984 8.36663 5.29984 10.4333 7.99984 12.9C10.6998 10.4333 11.9998 8.37329 11.9998 6.80663V6.73996L13.1998 5.53996C13.2865 5.93996 13.3332 6.36663 13.3332 6.80663C13.3332 9.01996 11.5532 11.64 7.99984 14.6733C4.4465 11.64 2.6665 9.01996 2.6665 6.80663C2.6665 3.48663 5.19984 1.33996 7.99984 1.33996C8.3865 1.33996 8.77317 1.37996 9.1465 1.45996Z" fill="#FF1200"/>
</g>
<defs>
<clipPath id="clip0_73_1399">
<rect width="16" height="16" fill="white"/>
</clipPath>
</defs>
</svg>
