<svg width="20" height="20" viewBox="0 0 20 20" fill="none" xmlns="http://www.w3.org/2000/svg">
<path fill-rule="evenodd" clip-rule="evenodd" d="M7.2741 7.27411C7.99706 6.55115 8.97759 6.145 10 6.145C11.0224 6.145 12.0029 6.55115 12.7259 7.27411C13.4488 7.99706 13.855 8.97759 13.855 10C13.855 11.0224 13.4488 12.0029 12.7259 12.7259C12.0029 13.4489 11.0224 13.855 10 13.855C8.97759 13.855 7.99706 13.4489 7.2741 12.7259C6.55115 12.0029 6.145 11.0224 6.145 10C6.145 8.97759 6.55115 7.99706 7.2741 7.27411ZM9.04233 12.312C9.34595 12.4378 9.67137 12.5025 10 12.5025C10.6637 12.5025 11.3002 12.2388 11.7695 11.7695C12.2388 11.3002 12.5025 10.6637 12.5025 10C12.5025 9.3363 12.2388 8.69978 11.7695 8.23047C11.3002 7.76116 10.6637 7.4975 10 7.4975C9.67137 7.4975 9.34595 7.56223 9.04233 7.68799C8.73872 7.81376 8.46284 7.99809 8.23046 8.23047C7.99809 8.46285 7.81375 8.73872 7.68799 9.04234C7.56223 9.34595 7.4975 9.67137 7.4975 10C7.4975 10.3286 7.56223 10.654 7.68799 10.9577C7.81375 11.2613 7.99809 11.5372 8.23046 11.7695C8.46284 12.0019 8.73872 12.1862 9.04233 12.312Z" fill="#171512"/>
<path d="M14.7096 6.71935C14.8805 6.54846 14.9765 6.31668 14.9765 6.075C14.9765 5.83332 14.8805 5.60154 14.7096 5.43065C14.5387 5.25976 14.3069 5.16375 14.0652 5.16375C13.8236 5.16375 13.5918 5.25976 13.4209 5.43065C13.25 5.60154 13.154 5.83332 13.154 6.075C13.154 6.31668 13.25 6.54846 13.4209 6.71935C13.5918 6.89025 13.8236 6.98625 14.0652 6.98625C14.3069 6.98625 14.5387 6.89025 14.7096 6.71935Z" fill="#171512"/>
<path fill-rule="evenodd" clip-rule="evenodd" d="M6.908 2.545C7.708 2.5085 7.963 2.5 10 2.5C12.0375 2.5 12.292 2.509 13.0915 2.545C13.89 2.5815 14.436 2.709 14.913 2.8935C15.4133 3.08193 15.8664 3.37711 16.241 3.7585C16.6225 4.13316 16.9177 4.58653 17.106 5.087C17.2915 5.564 17.4185 6.1095 17.455 6.908C17.4915 7.708 17.5 7.963 17.5 10C17.5 12.037 17.4915 12.292 17.455 13.092C17.4185 13.8905 17.2915 14.436 17.1065 14.913C16.9181 15.4133 16.6229 15.8664 16.2415 16.241C15.8665 16.623 15.413 16.918 14.913 17.106C14.436 17.2915 13.8905 17.4185 13.092 17.455C12.292 17.4915 12.037 17.5 10 17.5C7.963 17.5 7.708 17.4915 6.908 17.455C6.1095 17.4185 5.564 17.2915 5.087 17.1065C4.58675 16.9181 4.13358 16.6229 3.759 16.2415C3.377 15.8665 3.082 15.413 2.894 14.913C2.7085 14.436 2.5815 13.8905 2.545 13.092C2.5085 12.292 2.5 12.0375 2.5 10C2.5 7.9625 2.509 7.708 2.545 6.9085C2.5815 6.11 2.709 5.564 2.8935 5.087C3.08193 4.58675 3.37711 4.13357 3.7585 3.759C4.1335 3.377 4.587 3.082 5.087 2.894C5.564 2.7085 6.1095 2.5815 6.908 2.545ZM13.031 3.895C12.24 3.859 12.0025 3.8515 10 3.8515C7.9975 3.8515 7.76 3.859 6.969 3.895C6.238 3.9285 5.841 4.0505 5.5765 4.1535C5.2507 4.27349 4.95597 4.46502 4.714 4.714C4.452 4.9765 4.289 5.2265 4.1535 5.5765C4.05 5.841 3.9285 6.238 3.895 6.969C3.859 7.76 3.8515 7.9975 3.8515 10C3.8515 12.0025 3.859 12.24 3.895 13.031C3.9285 13.762 4.0505 14.159 4.1535 14.4235C4.27356 14.7493 4.46509 15.044 4.714 15.286C4.956 15.5349 5.25073 15.7265 5.5765 15.8465C5.841 15.95 6.238 16.0715 6.969 16.105C7.76 16.141 7.997 16.1485 10 16.1485C12.003 16.1485 12.24 16.141 13.031 16.105C13.762 16.0715 14.159 15.9495 14.4235 15.8465C14.7493 15.7265 15.044 15.535 15.286 15.286C15.5349 15.044 15.7265 14.7493 15.8465 14.4235C15.95 14.159 16.0715 13.762 16.105 13.031C16.141 12.24 16.1485 12.0025 16.1485 10C16.1485 7.9975 16.141 7.76 16.105 6.969C16.0715 6.238 15.9495 5.841 15.8465 5.5765C15.711 5.2265 15.5485 4.9765 15.286 4.714C15.0235 4.452 14.7735 4.289 14.4235 4.1535C14.159 4.05 13.762 3.9285 13.031 3.895Z" fill="#171512"/>
</svg>
