<svg width="27" height="20" viewBox="0 0 27 20" fill="none" xmlns="http://www.w3.org/2000/svg">
<path d="M27.0001 2.98633V19.4999C27.0001 19.776 26.7762 19.9999 26.5001 19.9999H18.7009C18.4247 19.9999 18.2009 19.776 18.2009 19.4999V11.378C18.2009 10.8721 17.5356 10.6862 17.2733 11.1188L12.0344 19.7591C11.9437 19.9086 11.7816 19.9999 11.6068 19.9999H3.31577C2.92433 19.9999 2.6847 19.5704 2.89027 19.2373L13.0809 2.72375C13.172 2.57618 13.333 2.48633 13.5064 2.48633H26.5001C26.7762 2.48633 27.0001 2.71019 27.0001 2.98633Z" fill="#151513"/>
<path d="M4.13184 2.07812C4.49505 3.00973 5.07042 3.55701 5.77539 3.89941C5.89802 3.95897 6.02575 4.00946 6.15527 4.05762C5.94214 4.13809 5.73668 4.22768 5.5498 4.33203L5.4043 4.41895C4.69981 4.86205 4.33102 5.48341 4.09863 6.12207C4.08203 6.07733 4.06665 6.03226 4.04883 5.98828C3.78786 5.34448 3.37696 4.74655 2.66309 4.33789L2.51562 4.25879L2.21973 4.12207C2.16254 4.0981 2.10397 4.07757 2.0459 4.05566C2.33297 3.94916 2.61569 3.8194 2.87891 3.64648C3.52091 3.22475 3.87491 2.60925 4.10059 1.99121C4.11117 2.01995 4.12065 2.04943 4.13184 2.07812Z" fill="#151513" stroke="#151513"/>
</svg>
